<?xml version="1.0" encoding="UTF-8" standalone="no"?>
<!DOCTYPE svg PUBLIC "-//W3C//DTD SVG 1.1//EN"
 "http://www.w3.org/Graphics/SVG/1.1/DTD/svg11.dtd">
<!-- Generated by graphviz version 2.43.0 (0)
 -->
<!-- Title: snakemake_dag Pages: 1 -->
<svg width="568pt" height="548pt"
 viewBox="0.00 0.00 567.50 548.00" xmlns="http://www.w3.org/2000/svg" xmlns:xlink="http://www.w3.org/1999/xlink">
<g id="graph0" class="graph" transform="scale(1 1) rotate(0) translate(4 544)">
<title>snakemake_dag</title>
<polygon fill="white" stroke="transparent" points="-4,4 -4,-544 563.5,-544 563.5,4 -4,4"/>
<!-- 1 -->
<g id="node1" class="node">
<title>1</title>
<path fill="none" stroke="#80d856" stroke-width="2" d="M273.5,-36C273.5,-36 158.5,-36 158.5,-36 152.5,-36 146.5,-30 146.5,-24 146.5,-24 146.5,-12 146.5,-12 146.5,-6 152.5,0 158.5,0 158.5,0 273.5,0 273.5,0 279.5,0 285.5,-6 285.5,-12 285.5,-12 285.5,-24 285.5,-24 285.5,-30 279.5,-36 273.5,-36"/>
<text text-anchor="middle" x="216" y="-15.5" font-family="sans" font-size="10.00">remove_captus_paralogs</text>
</g>
<!-- 2 -->
<g id="node2" class="node">
<title>2</title>
<path fill="none" stroke="#d88d56" stroke-width="2" d="M265.5,-108C265.5,-108 132.5,-108 132.5,-108 126.5,-108 120.5,-102 120.5,-96 120.5,-96 120.5,-84 120.5,-84 120.5,-78 126.5,-72 132.5,-72 132.5,-72 265.5,-72 265.5,-72 271.5,-72 277.5,-78 277.5,-84 277.5,-84 277.5,-96 277.5,-96 277.5,-102 271.5,-108 265.5,-108"/>
<text text-anchor="middle" x="199" y="-87.5" font-family="sans" font-size="10.00">merge_extracted_sequences</text>
</g>
<!-- 2&#45;&gt;1 -->
<g id="edge1" class="edge">
<title>2&#45;&gt;1</title>
<path fill="none" stroke="grey" stroke-width="2" d="M203.2,-71.7C205.1,-63.9 207.38,-54.51 209.48,-45.83"/>
<polygon fill="grey" stroke="grey" stroke-width="2" points="212.89,-46.65 211.85,-36.1 206.08,-45 212.89,-46.65"/>
</g>
<!-- 16 -->
<g id="node16" class="node">
<title>16</title>
<path fill="none" stroke="#5673d8" stroke-width="2" d="M116,-36C116,-36 12,-36 12,-36 6,-36 0,-30 0,-24 0,-24 0,-12 0,-12 0,-6 6,0 12,0 12,0 116,0 116,0 122,0 128,-6 128,-12 128,-12 128,-24 128,-24 128,-30 122,-36 116,-36"/>
<text text-anchor="middle" x="64" y="-15.5" font-family="sans" font-size="10.00">captus_extract_round2</text>
</g>
<!-- 2&#45;&gt;16 -->
<g id="edge18" class="edge">
<title>2&#45;&gt;16</title>
<path fill="none" stroke="grey" stroke-width="2" d="M165.98,-71.88C147.92,-62.51 125.35,-50.81 106.05,-40.8"/>
<polygon fill="grey" stroke="grey" stroke-width="2" points="107.64,-37.69 97.15,-36.19 104.42,-43.9 107.64,-37.69"/>
</g>
<!-- 3 -->
<g id="node3" class="node">
<title>3</title>
<path fill="none" stroke="#56d8d0" stroke-width="2" d="M258.5,-180C258.5,-180 107.5,-180 107.5,-180 101.5,-180 95.5,-174 95.5,-168 95.5,-168 95.5,-156 95.5,-156 95.5,-150 101.5,-144 107.5,-144 107.5,-144 258.5,-144 258.5,-144 264.5,-144 270.5,-150 270.5,-156 270.5,-156 270.5,-168 270.5,-168 270.5,-174 264.5,-180 258.5,-180"/>
<text text-anchor="middle" x="183" y="-159.5" font-family="sans" font-size="10.00">generate_lists_of_loci_to_merge</text>
</g>
<!-- 3&#45;&gt;2 -->
<g id="edge3" class="edge">
<title>3&#45;&gt;2</title>
<path fill="none" stroke="grey" stroke-width="2" d="M186.96,-143.7C188.72,-135.98 190.84,-126.71 192.8,-118.11"/>
<polygon fill="grey" stroke="grey" stroke-width="2" points="196.27,-118.63 195.09,-108.1 189.45,-117.07 196.27,-118.63"/>
</g>
<!-- 4 -->
<g id="node4" class="node">
<title>4</title>
<path fill="none" stroke="#d8ac56" stroke-width="2" d="M231,-252C231,-252 135,-252 135,-252 129,-252 123,-246 123,-240 123,-240 123,-228 123,-228 123,-222 129,-216 135,-216 135,-216 231,-216 231,-216 237,-216 243,-222 243,-228 243,-228 243,-240 243,-240 243,-246 237,-252 231,-252"/>
<text text-anchor="middle" x="183" y="-231.5" font-family="sans" font-size="10.00">find_overlapping_loci</text>
</g>
<!-- 4&#45;&gt;3 -->
<g id="edge4" class="edge">
<title>4&#45;&gt;3</title>
<path fill="none" stroke="grey" stroke-width="2" d="M183,-215.7C183,-207.98 183,-198.71 183,-190.11"/>
<polygon fill="grey" stroke="grey" stroke-width="2" points="186.5,-190.1 183,-180.1 179.5,-190.1 186.5,-190.1"/>
</g>
<!-- 5 -->
<g id="node5" class="node">
<title>5</title>
<path fill="none" stroke="#56a9d8" stroke-width="2" d="M227.5,-324C227.5,-324 162.5,-324 162.5,-324 156.5,-324 150.5,-318 150.5,-312 150.5,-312 150.5,-300 150.5,-300 150.5,-294 156.5,-288 162.5,-288 162.5,-288 227.5,-288 227.5,-288 233.5,-288 239.5,-294 239.5,-300 239.5,-300 239.5,-312 239.5,-312 239.5,-318 233.5,-324 227.5,-324"/>
<text text-anchor="middle" x="195" y="-303.5" font-family="sans" font-size="10.00">captus_extract</text>
</g>
<!-- 5&#45;&gt;4 -->
<g id="edge6" class="edge">
<title>5&#45;&gt;4</title>
<path fill="none" stroke="grey" stroke-width="2" d="M192.03,-287.7C190.71,-279.98 189.12,-270.71 187.65,-262.11"/>
<polygon fill="grey" stroke="grey" stroke-width="2" points="191.07,-261.37 185.93,-252.1 184.17,-262.55 191.07,-261.37"/>
</g>
<!-- 6 -->
<g id="node6" class="node">
<title>6</title>
<path fill="none" stroke="#56c1d8" stroke-width="2" d="M81.5,-396C81.5,-396 46.5,-396 46.5,-396 40.5,-396 34.5,-390 34.5,-384 34.5,-384 34.5,-372 34.5,-372 34.5,-366 40.5,-360 46.5,-360 46.5,-360 81.5,-360 81.5,-360 87.5,-360 93.5,-366 93.5,-372 93.5,-372 93.5,-384 93.5,-384 93.5,-390 87.5,-396 81.5,-396"/>
<text text-anchor="middle" x="64" y="-375.5" font-family="sans" font-size="10.00">reformat</text>
</g>
<!-- 6&#45;&gt;5 -->
<g id="edge8" class="edge">
<title>6&#45;&gt;5</title>
<path fill="none" stroke="grey" stroke-width="2" d="M93.73,-361.12C111.58,-351.57 134.55,-339.3 154.11,-328.85"/>
<polygon fill="grey" stroke="grey" stroke-width="2" points="155.93,-331.84 163.1,-324.04 152.63,-325.67 155.93,-331.84"/>
</g>
<!-- 6&#45;&gt;16 -->
<g id="edge19" class="edge">
<title>6&#45;&gt;16</title>
<path fill="none" stroke="grey" stroke-width="2" d="M64,-359.95C64,-333.29 64,-280.11 64,-235 64,-235 64,-235 64,-161 64,-121 64,-74.65 64,-46.08"/>
<polygon fill="grey" stroke="grey" stroke-width="2" points="67.5,-46.05 64,-36.05 60.5,-46.05 67.5,-46.05"/>
</g>
<!-- 7 -->
<g id="node7" class="node">
<title>7</title>
<path fill="none" stroke="#568ad8" stroke-width="2" d="M187,-540C187,-540 101,-540 101,-540 95,-540 89,-534 89,-528 89,-528 89,-516 89,-516 89,-510 95,-504 101,-504 101,-504 187,-504 187,-504 193,-504 199,-510 199,-516 199,-516 199,-528 199,-528 199,-534 193,-540 187,-540"/>
<text text-anchor="middle" x="144" y="-519.5" font-family="sans" font-size="10.00">collect_remote_file</text>
</g>
<!-- 7&#45;&gt;6 -->
<g id="edge9" class="edge">
<title>7&#45;&gt;6</title>
<path fill="none" stroke="grey" stroke-width="2" d="M117.26,-503.83C105.03,-494.63 91.41,-482.26 83,-468 71.93,-449.23 67.27,-424.85 65.33,-406.35"/>
<polygon fill="grey" stroke="grey" stroke-width="2" points="68.81,-405.9 64.48,-396.23 61.83,-406.49 68.81,-405.9"/>
</g>
<!-- 9 -->
<g id="node9" class="node">
<title>9</title>
<path fill="none" stroke="#d85656" stroke-width="2" d="M312,-468C312,-468 234,-468 234,-468 228,-468 222,-462 222,-456 222,-456 222,-444 222,-444 222,-438 228,-432 234,-432 234,-432 312,-432 312,-432 318,-432 324,-438 324,-444 324,-444 324,-456 324,-456 324,-462 318,-468 312,-468"/>
<text text-anchor="middle" x="273" y="-447.5" font-family="sans" font-size="10.00">dedupe_targetfile</text>
</g>
<!-- 7&#45;&gt;9 -->
<g id="edge11" class="edge">
<title>7&#45;&gt;9</title>
<path fill="none" stroke="grey" stroke-width="2" d="M175.56,-503.88C192.66,-494.6 213.98,-483.03 232.32,-473.08"/>
<polygon fill="grey" stroke="grey" stroke-width="2" points="234.2,-476.04 241.32,-468.19 230.86,-469.88 234.2,-476.04"/>
</g>
<!-- 10 -->
<g id="node10" class="node">
<title>10</title>
<path fill="none" stroke="#56d882" stroke-width="2" d="M184,-468C184,-468 104,-468 104,-468 98,-468 92,-462 92,-456 92,-456 92,-444 92,-444 92,-438 98,-432 104,-432 104,-432 184,-432 184,-432 190,-432 196,-438 196,-444 196,-444 196,-456 196,-456 196,-462 190,-468 184,-468"/>
<text text-anchor="middle" x="144" y="-447.5" font-family="sans" font-size="10.00">index_ref_dataset</text>
</g>
<!-- 7&#45;&gt;10 -->
<g id="edge12" class="edge">
<title>7&#45;&gt;10</title>
<path fill="none" stroke="grey" stroke-width="2" d="M144,-503.7C144,-495.98 144,-486.71 144,-478.11"/>
<polygon fill="grey" stroke="grey" stroke-width="2" points="147.5,-478.1 144,-468.1 140.5,-478.1 147.5,-478.1"/>
</g>
<!-- 8 -->
<g id="node8" class="node">
<title>8</title>
<path fill="none" stroke="#d87556" stroke-width="2" d="M342,-396C342,-396 220,-396 220,-396 214,-396 208,-390 208,-384 208,-384 208,-372 208,-372 208,-366 214,-360 220,-360 220,-360 342,-360 342,-360 348,-360 354,-366 354,-372 354,-372 354,-384 354,-384 354,-390 348,-396 342,-396"/>
<text text-anchor="middle" x="281" y="-375.5" font-family="sans" font-size="10.00">rename_target_sequences</text>
</g>
<!-- 8&#45;&gt;5 -->
<g id="edge7" class="edge">
<title>8&#45;&gt;5</title>
<path fill="none" stroke="grey" stroke-width="2" d="M259.74,-359.7C248.91,-350.88 235.58,-340.03 223.84,-330.47"/>
<polygon fill="grey" stroke="grey" stroke-width="2" points="225.98,-327.7 216.01,-324.1 221.56,-333.13 225.98,-327.7"/>
</g>
<!-- 12 -->
<g id="node12" class="node">
<title>12</title>
<path fill="none" stroke="#56d863" stroke-width="2" d="M380,-324C380,-324 270,-324 270,-324 264,-324 258,-318 258,-312 258,-312 258,-300 258,-300 258,-294 264,-288 270,-288 270,-288 380,-288 380,-288 386,-288 392,-294 392,-300 392,-300 392,-312 392,-312 392,-318 386,-324 380,-324"/>
<text text-anchor="middle" x="325" y="-303.5" font-family="sans" font-size="10.00">group_targets_by_prefix</text>
</g>
<!-- 8&#45;&gt;12 -->
<g id="edge14" class="edge">
<title>8&#45;&gt;12</title>
<path fill="none" stroke="grey" stroke-width="2" d="M291.88,-359.7C296.99,-351.56 303.2,-341.69 308.84,-332.7"/>
<polygon fill="grey" stroke="grey" stroke-width="2" points="311.89,-334.43 314.25,-324.1 305.96,-330.71 311.89,-334.43"/>
</g>
<!-- 14 -->
<g id="node14" class="node">
<title>14</title>
<path fill="none" stroke="#61d856" stroke-width="2" d="M489.5,-324C489.5,-324 422.5,-324 422.5,-324 416.5,-324 410.5,-318 410.5,-312 410.5,-312 410.5,-300 410.5,-300 410.5,-294 416.5,-288 422.5,-288 422.5,-288 489.5,-288 489.5,-288 495.5,-288 501.5,-294 501.5,-300 501.5,-300 501.5,-312 501.5,-312 501.5,-318 495.5,-324 489.5,-324"/>
<text text-anchor="middle" x="456" y="-303.5" font-family="sans" font-size="10.00">select_families</text>
</g>
<!-- 8&#45;&gt;14 -->
<g id="edge16" class="edge">
<title>8&#45;&gt;14</title>
<path fill="none" stroke="grey" stroke-width="2" d="M323.81,-359.88C347.95,-350.22 378.28,-338.09 403.81,-327.88"/>
<polygon fill="grey" stroke="grey" stroke-width="2" points="405.34,-331.03 413.33,-324.07 402.74,-324.53 405.34,-331.03"/>
</g>
<!-- 9&#45;&gt;8 -->
<g id="edge10" class="edge">
<title>9&#45;&gt;8</title>
<path fill="none" stroke="grey" stroke-width="2" d="M274.98,-431.7C275.86,-423.98 276.92,-414.71 277.9,-406.11"/>
<polygon fill="grey" stroke="grey" stroke-width="2" points="281.39,-406.44 279.05,-396.1 274.43,-405.64 281.39,-406.44"/>
</g>
<!-- 10&#45;&gt;4 -->
<g id="edge5" class="edge">
<title>10&#45;&gt;4</title>
<path fill="none" stroke="grey" stroke-width="2" d="M139.92,-431.94C133.54,-401.87 123.63,-337.9 141,-288 144.53,-277.86 150.91,-268.19 157.64,-259.96"/>
<polygon fill="grey" stroke="grey" stroke-width="2" points="160.44,-262.07 164.4,-252.24 155.17,-257.46 160.44,-262.07"/>
</g>
<!-- 11 -->
<g id="node11" class="node">
<title>11</title>
<path fill="none" stroke="#b6d856" stroke-width="2" d="M347,-180C347,-180 301,-180 301,-180 295,-180 289,-174 289,-168 289,-168 289,-156 289,-156 289,-150 295,-144 301,-144 301,-144 347,-144 347,-144 353,-144 359,-150 359,-156 359,-156 359,-168 359,-168 359,-174 353,-180 347,-180"/>
<text text-anchor="middle" x="324" y="-159.5" font-family="sans" font-size="10.00">orthofinder</text>
</g>
<!-- 11&#45;&gt;2 -->
<g id="edge2" class="edge">
<title>11&#45;&gt;2</title>
<path fill="none" stroke="grey" stroke-width="2" d="M293.42,-143.88C276.93,-134.64 256.38,-123.13 238.66,-113.21"/>
<polygon fill="grey" stroke="grey" stroke-width="2" points="240.13,-110.02 229.7,-108.19 236.71,-116.13 240.13,-110.02"/>
</g>
<!-- 12&#45;&gt;11 -->
<g id="edge13" class="edge">
<title>12&#45;&gt;11</title>
<path fill="none" stroke="grey" stroke-width="2" d="M324.88,-287.87C324.71,-263.67 324.4,-219.21 324.19,-190.39"/>
<polygon fill="grey" stroke="grey" stroke-width="2" points="327.69,-190.16 324.12,-180.19 320.69,-190.21 327.69,-190.16"/>
</g>
<!-- 13 -->
<g id="node13" class="node">
<title>13</title>
<path fill="none" stroke="#56d8b9" stroke-width="2" d="M547.5,-252C547.5,-252 364.5,-252 364.5,-252 358.5,-252 352.5,-246 352.5,-240 352.5,-240 352.5,-228 352.5,-228 352.5,-222 358.5,-216 364.5,-216 364.5,-216 547.5,-216 547.5,-216 553.5,-216 559.5,-222 559.5,-228 559.5,-228 559.5,-240 559.5,-240 559.5,-246 553.5,-252 547.5,-252"/>
<text text-anchor="middle" x="456" y="-231.5" font-family="sans" font-size="10.00">remove_mega_from_selected_families</text>
</g>
<!-- 14&#45;&gt;13 -->
<g id="edge15" class="edge">
<title>14&#45;&gt;13</title>
<path fill="none" stroke="grey" stroke-width="2" d="M456,-287.7C456,-279.98 456,-270.71 456,-262.11"/>
<polygon fill="grey" stroke="grey" stroke-width="2" points="459.5,-262.1 456,-252.1 452.5,-262.1 459.5,-262.1"/>
</g>
<!-- 15 -->
<g id="node15" class="node">
<title>15</title>
<path fill="none" stroke="#ced856" stroke-width="2" d="M512.5,-396C512.5,-396 399.5,-396 399.5,-396 393.5,-396 387.5,-390 387.5,-384 387.5,-384 387.5,-372 387.5,-372 387.5,-366 393.5,-360 399.5,-360 399.5,-360 512.5,-360 512.5,-360 518.5,-360 524.5,-366 524.5,-372 524.5,-372 524.5,-384 524.5,-384 524.5,-390 518.5,-396 512.5,-396"/>
<text text-anchor="middle" x="456" y="-375.5" font-family="sans" font-size="10.00">download_remote_script</text>
</g>
<!-- 15&#45;&gt;14 -->
<g id="edge17" class="edge">
<title>15&#45;&gt;14</title>
<path fill="none" stroke="grey" stroke-width="2" d="M456,-359.7C456,-351.98 456,-342.71 456,-334.11"/>
<polygon fill="grey" stroke="grey" stroke-width="2" points="459.5,-334.1 456,-324.1 452.5,-334.1 459.5,-334.1"/>
</g>
</g>
</svg>
