<?xml version="1.0" encoding="UTF-8" standalone="no"?>
<!DOCTYPE svg PUBLIC "-//W3C//DTD SVG 1.1//EN"
 "http://www.w3.org/Graphics/SVG/1.1/DTD/svg11.dtd">
<!-- Generated by graphviz version 2.43.0 (0)
 -->
<!-- Title: snakemake_dag Pages: 1 -->
<svg width="666pt" height="548pt"
 viewBox="0.00 0.00 665.50 548.00" xmlns="http://www.w3.org/2000/svg" xmlns:xlink="http://www.w3.org/1999/xlink">
<g id="graph0" class="graph" transform="scale(1 1) rotate(0) translate(4 544)">
<title>snakemake_dag</title>
<polygon fill="white" stroke="transparent" points="-4,4 -4,-544 661.5,-544 661.5,4 -4,4"/>
<!-- 1 -->
<g id="node1" class="node">
<title>1</title>
<path fill="none" stroke="#56d882" stroke-width="2" d="M273.5,-36C273.5,-36 158.5,-36 158.5,-36 152.5,-36 146.5,-30 146.5,-24 146.5,-24 146.5,-12 146.5,-12 146.5,-6 152.5,0 158.5,0 158.5,0 273.5,0 273.5,0 279.5,0 285.5,-6 285.5,-12 285.5,-12 285.5,-24 285.5,-24 285.5,-30 279.5,-36 273.5,-36"/>
<text text-anchor="middle" x="216" y="-15.5" font-family="sans" font-size="10.00">remove_captus_paralogs</text>
</g>
<!-- 2 -->
<g id="node2" class="node">
<title>2</title>
<path fill="none" stroke="#d8c356" stroke-width="2" d="M268.5,-108C268.5,-108 135.5,-108 135.5,-108 129.5,-108 123.5,-102 123.5,-96 123.5,-96 123.5,-84 123.5,-84 123.5,-78 129.5,-72 135.5,-72 135.5,-72 268.5,-72 268.5,-72 274.5,-72 280.5,-78 280.5,-84 280.5,-84 280.5,-96 280.5,-96 280.5,-102 274.5,-108 268.5,-108"/>
<text text-anchor="middle" x="202" y="-87.5" font-family="sans" font-size="10.00">merge_extracted_sequences</text>
</g>
<!-- 2&#45;&gt;1 -->
<g id="edge1" class="edge">
<title>2&#45;&gt;1</title>
<path fill="none" stroke="grey" stroke-width="2" d="M205.46,-71.7C207,-63.98 208.86,-54.71 210.58,-46.11"/>
<polygon fill="grey" stroke="grey" stroke-width="2" points="214.05,-46.6 212.58,-36.1 207.19,-45.22 214.05,-46.6"/>
</g>
<!-- 16 -->
<g id="node16" class="node">
<title>16</title>
<path fill="none" stroke="#56d89a" stroke-width="2" d="M116,-36C116,-36 12,-36 12,-36 6,-36 0,-30 0,-24 0,-24 0,-12 0,-12 0,-6 6,0 12,0 12,0 116,0 116,0 122,0 128,-6 128,-12 128,-12 128,-24 128,-24 128,-30 122,-36 116,-36"/>
<text text-anchor="middle" x="64" y="-15.5" font-family="sans" font-size="10.00">captus_extract_round2</text>
</g>
<!-- 2&#45;&gt;16 -->
<g id="edge19" class="edge">
<title>2&#45;&gt;16</title>
<path fill="none" stroke="grey" stroke-width="2" d="M168.24,-71.88C149.78,-62.51 126.72,-50.81 106.98,-40.8"/>
<polygon fill="grey" stroke="grey" stroke-width="2" points="108.39,-37.59 97.89,-36.19 105.22,-43.83 108.39,-37.59"/>
</g>
<!-- 3 -->
<g id="node3" class="node">
<title>3</title>
<path fill="none" stroke="#d88556" stroke-width="2" d="M171.5,-324C171.5,-324 106.5,-324 106.5,-324 100.5,-324 94.5,-318 94.5,-312 94.5,-312 94.5,-300 94.5,-300 94.5,-294 100.5,-288 106.5,-288 106.5,-288 171.5,-288 171.5,-288 177.5,-288 183.5,-294 183.5,-300 183.5,-300 183.5,-312 183.5,-312 183.5,-318 177.5,-324 171.5,-324"/>
<text text-anchor="middle" x="139" y="-303.5" font-family="sans" font-size="10.00">captus_extract</text>
</g>
<!-- 3&#45;&gt;2 -->
<g id="edge3" class="edge">
<title>3&#45;&gt;2</title>
<path fill="none" stroke="grey" stroke-width="2" d="M130.96,-287.79C117.81,-256.92 95.58,-191.01 121,-144 127.82,-131.39 139.09,-121.3 151.08,-113.45"/>
<polygon fill="grey" stroke="grey" stroke-width="2" points="153.14,-116.29 159.89,-108.13 149.52,-110.3 153.14,-116.29"/>
</g>
<!-- 9 -->
<g id="node9" class="node">
<title>9</title>
<path fill="none" stroke="#56d8c1" stroke-width="2" d="M262,-252C262,-252 166,-252 166,-252 160,-252 154,-246 154,-240 154,-240 154,-228 154,-228 154,-222 160,-216 166,-216 166,-216 262,-216 262,-216 268,-216 274,-222 274,-228 274,-228 274,-240 274,-240 274,-246 268,-252 262,-252"/>
<text text-anchor="middle" x="214" y="-231.5" font-family="sans" font-size="10.00">find_overlapping_loci</text>
</g>
<!-- 3&#45;&gt;9 -->
<g id="edge11" class="edge">
<title>3&#45;&gt;9</title>
<path fill="none" stroke="grey" stroke-width="2" d="M157.54,-287.7C166.8,-279.05 178.16,-268.45 188.26,-259.03"/>
<polygon fill="grey" stroke="grey" stroke-width="2" points="190.75,-261.49 195.67,-252.1 185.98,-256.37 190.75,-261.49"/>
</g>
<!-- 4 -->
<g id="node4" class="node">
<title>4</title>
<path fill="none" stroke="#68d856" stroke-width="2" d="M151.5,-396C151.5,-396 116.5,-396 116.5,-396 110.5,-396 104.5,-390 104.5,-384 104.5,-384 104.5,-372 104.5,-372 104.5,-366 110.5,-360 116.5,-360 116.5,-360 151.5,-360 151.5,-360 157.5,-360 163.5,-366 163.5,-372 163.5,-372 163.5,-384 163.5,-384 163.5,-390 157.5,-396 151.5,-396"/>
<text text-anchor="middle" x="134" y="-375.5" font-family="sans" font-size="10.00">reformat</text>
</g>
<!-- 4&#45;&gt;3 -->
<g id="edge6" class="edge">
<title>4&#45;&gt;3</title>
<path fill="none" stroke="grey" stroke-width="2" d="M135.24,-359.7C135.79,-351.98 136.45,-342.71 137.06,-334.11"/>
<polygon fill="grey" stroke="grey" stroke-width="2" points="140.56,-334.33 137.78,-324.1 133.57,-333.83 140.56,-334.33"/>
</g>
<!-- 4&#45;&gt;16 -->
<g id="edge20" class="edge">
<title>4&#45;&gt;16</title>
<path fill="none" stroke="grey" stroke-width="2" d="M114.16,-359.63C104.35,-350.03 93.12,-337.37 86,-324 66.85,-288.03 64,-275.75 64,-235 64,-235 64,-235 64,-161 64,-121 64,-74.65 64,-46.08"/>
<polygon fill="grey" stroke="grey" stroke-width="2" points="67.5,-46.05 64,-36.05 60.5,-46.05 67.5,-46.05"/>
</g>
<!-- 5 -->
<g id="node5" class="node">
<title>5</title>
<path fill="none" stroke="#56c1d8" stroke-width="2" d="M257,-540C257,-540 171,-540 171,-540 165,-540 159,-534 159,-528 159,-528 159,-516 159,-516 159,-510 165,-504 171,-504 171,-504 257,-504 257,-504 263,-504 269,-510 269,-516 269,-516 269,-528 269,-528 269,-534 263,-540 257,-540"/>
<text text-anchor="middle" x="214" y="-519.5" font-family="sans" font-size="10.00">collect_remote_file</text>
</g>
<!-- 5&#45;&gt;4 -->
<g id="edge7" class="edge">
<title>5&#45;&gt;4</title>
<path fill="none" stroke="grey" stroke-width="2" d="M187.26,-503.83C175.03,-494.63 161.41,-482.26 153,-468 141.93,-449.23 137.27,-424.85 135.33,-406.35"/>
<polygon fill="grey" stroke="grey" stroke-width="2" points="138.81,-405.9 134.48,-396.23 131.83,-406.49 138.81,-405.9"/>
</g>
<!-- 7 -->
<g id="node7" class="node">
<title>7</title>
<path fill="none" stroke="#80d856" stroke-width="2" d="M374,-468C374,-468 296,-468 296,-468 290,-468 284,-462 284,-456 284,-456 284,-444 284,-444 284,-438 290,-432 296,-432 296,-432 374,-432 374,-432 380,-432 386,-438 386,-444 386,-444 386,-456 386,-456 386,-462 380,-468 374,-468"/>
<text text-anchor="middle" x="335" y="-447.5" font-family="sans" font-size="10.00">dedupe_targetfile</text>
</g>
<!-- 5&#45;&gt;7 -->
<g id="edge9" class="edge">
<title>5&#45;&gt;7</title>
<path fill="none" stroke="grey" stroke-width="2" d="M243.6,-503.88C259.57,-494.64 279.46,-483.13 296.61,-473.21"/>
<polygon fill="grey" stroke="grey" stroke-width="2" points="298.38,-476.23 305.29,-468.19 294.88,-470.17 298.38,-476.23"/>
</g>
<!-- 10 -->
<g id="node10" class="node">
<title>10</title>
<path fill="none" stroke="#c6d856" stroke-width="2" d="M254,-468C254,-468 174,-468 174,-468 168,-468 162,-462 162,-456 162,-456 162,-444 162,-444 162,-438 168,-432 174,-432 174,-432 254,-432 254,-432 260,-432 266,-438 266,-444 266,-444 266,-456 266,-456 266,-462 260,-468 254,-468"/>
<text text-anchor="middle" x="214" y="-447.5" font-family="sans" font-size="10.00">index_ref_dataset</text>
</g>
<!-- 5&#45;&gt;10 -->
<g id="edge13" class="edge">
<title>5&#45;&gt;10</title>
<path fill="none" stroke="grey" stroke-width="2" d="M214,-503.7C214,-495.98 214,-486.71 214,-478.11"/>
<polygon fill="grey" stroke="grey" stroke-width="2" points="217.5,-478.1 214,-468.1 210.5,-478.1 217.5,-478.1"/>
</g>
<!-- 6 -->
<g id="node6" class="node">
<title>6</title>
<path fill="none" stroke="#d85656" stroke-width="2" d="M396,-396C396,-396 274,-396 274,-396 268,-396 262,-390 262,-384 262,-384 262,-372 262,-372 262,-366 268,-360 274,-360 274,-360 396,-360 396,-360 402,-360 408,-366 408,-372 408,-372 408,-384 408,-384 408,-390 402,-396 396,-396"/>
<text text-anchor="middle" x="335" y="-375.5" font-family="sans" font-size="10.00">rename_target_sequences</text>
</g>
<!-- 6&#45;&gt;3 -->
<g id="edge5" class="edge">
<title>6&#45;&gt;3</title>
<path fill="none" stroke="grey" stroke-width="2" d="M287.3,-359.97C258.9,-349.82 222.76,-336.91 193.27,-326.38"/>
<polygon fill="grey" stroke="grey" stroke-width="2" points="194.14,-322.98 183.54,-322.91 191.78,-329.57 194.14,-322.98"/>
</g>
<!-- 12 -->
<g id="node12" class="node">
<title>12</title>
<path fill="none" stroke="#97d856" stroke-width="2" d="M382,-324C382,-324 272,-324 272,-324 266,-324 260,-318 260,-312 260,-312 260,-300 260,-300 260,-294 266,-288 272,-288 272,-288 382,-288 382,-288 388,-288 394,-294 394,-300 394,-300 394,-312 394,-312 394,-318 388,-324 382,-324"/>
<text text-anchor="middle" x="327" y="-303.5" font-family="sans" font-size="10.00">group_targets_by_prefix</text>
</g>
<!-- 6&#45;&gt;12 -->
<g id="edge15" class="edge">
<title>6&#45;&gt;12</title>
<path fill="none" stroke="grey" stroke-width="2" d="M333.02,-359.7C332.14,-351.98 331.08,-342.71 330.1,-334.11"/>
<polygon fill="grey" stroke="grey" stroke-width="2" points="333.57,-333.64 328.95,-324.1 326.61,-334.44 333.57,-333.64"/>
</g>
<!-- 14 -->
<g id="node14" class="node">
<title>14</title>
<path fill="none" stroke="#569ad8" stroke-width="2" d="M530.5,-324C530.5,-324 463.5,-324 463.5,-324 457.5,-324 451.5,-318 451.5,-312 451.5,-312 451.5,-300 451.5,-300 451.5,-294 457.5,-288 463.5,-288 463.5,-288 530.5,-288 530.5,-288 536.5,-288 542.5,-294 542.5,-300 542.5,-300 542.5,-312 542.5,-312 542.5,-318 536.5,-324 530.5,-324"/>
<text text-anchor="middle" x="497" y="-303.5" font-family="sans" font-size="10.00">select_families</text>
</g>
<!-- 6&#45;&gt;14 -->
<g id="edge17" class="edge">
<title>6&#45;&gt;14</title>
<path fill="none" stroke="grey" stroke-width="2" d="M374.63,-359.88C396.78,-350.31 424.56,-338.3 448.06,-328.15"/>
<polygon fill="grey" stroke="grey" stroke-width="2" points="449.71,-331.25 457.5,-324.07 446.93,-324.82 449.71,-331.25"/>
</g>
<!-- 17 -->
<g id="node17" class="node">
<title>17</title>
<path fill="none" stroke="#d8ac56" stroke-width="2" d="M433,-108C433,-108 311,-108 311,-108 305,-108 299,-102 299,-96 299,-96 299,-84 299,-84 299,-78 305,-72 311,-72 311,-72 433,-72 433,-72 439,-72 445,-78 445,-84 445,-84 445,-96 445,-96 445,-102 439,-108 433,-108"/>
<text text-anchor="middle" x="372" y="-87.5" font-family="sans" font-size="10.00">rename_original_targetfile</text>
</g>
<!-- 6&#45;&gt;17 -->
<g id="edge21" class="edge">
<title>6&#45;&gt;17</title>
<path fill="none" stroke="grey" stroke-width="2" d="M368.36,-359.86C381.71,-351.09 395.64,-339.06 403,-324 438.11,-252.12 423.92,-221.22 403,-144 400.42,-134.48 395.66,-124.92 390.62,-116.59"/>
<polygon fill="grey" stroke="grey" stroke-width="2" points="393.51,-114.6 385.15,-108.09 387.62,-118.39 393.51,-114.6"/>
</g>
<!-- 7&#45;&gt;6 -->
<g id="edge8" class="edge">
<title>7&#45;&gt;6</title>
<path fill="none" stroke="grey" stroke-width="2" d="M335,-431.7C335,-423.98 335,-414.71 335,-406.11"/>
<polygon fill="grey" stroke="grey" stroke-width="2" points="338.5,-406.1 335,-396.1 331.5,-406.1 338.5,-406.1"/>
</g>
<!-- 8 -->
<g id="node8" class="node">
<title>8</title>
<path fill="none" stroke="#d86e56" stroke-width="2" d="M293.5,-180C293.5,-180 142.5,-180 142.5,-180 136.5,-180 130.5,-174 130.5,-168 130.5,-168 130.5,-156 130.5,-156 130.5,-150 136.5,-144 142.5,-144 142.5,-144 293.5,-144 293.5,-144 299.5,-144 305.5,-150 305.5,-156 305.5,-156 305.5,-168 305.5,-168 305.5,-174 299.5,-180 293.5,-180"/>
<text text-anchor="middle" x="218" y="-159.5" font-family="sans" font-size="10.00">generate_lists_of_loci_to_merge</text>
</g>
<!-- 8&#45;&gt;2 -->
<g id="edge4" class="edge">
<title>8&#45;&gt;2</title>
<path fill="none" stroke="grey" stroke-width="2" d="M214.04,-143.7C212.28,-135.98 210.16,-126.71 208.2,-118.11"/>
<polygon fill="grey" stroke="grey" stroke-width="2" points="211.55,-117.07 205.91,-108.1 204.73,-118.63 211.55,-117.07"/>
</g>
<!-- 8&#45;&gt;17 -->
<g id="edge22" class="edge">
<title>8&#45;&gt;17</title>
<path fill="none" stroke="grey" stroke-width="2" d="M255.67,-143.88C276.63,-134.35 302.9,-122.41 325.18,-112.28"/>
<polygon fill="grey" stroke="grey" stroke-width="2" points="326.79,-115.39 334.45,-108.07 323.9,-109.02 326.79,-115.39"/>
</g>
<!-- 9&#45;&gt;8 -->
<g id="edge10" class="edge">
<title>9&#45;&gt;8</title>
<path fill="none" stroke="grey" stroke-width="2" d="M214.99,-215.7C215.43,-207.98 215.96,-198.71 216.45,-190.11"/>
<polygon fill="grey" stroke="grey" stroke-width="2" points="219.95,-190.29 217.02,-180.1 212.96,-189.89 219.95,-190.29"/>
</g>
<!-- 10&#45;&gt;9 -->
<g id="edge12" class="edge">
<title>10&#45;&gt;9</title>
<path fill="none" stroke="grey" stroke-width="2" d="M214,-431.85C214,-394.83 214,-307.18 214,-262.39"/>
<polygon fill="grey" stroke="grey" stroke-width="2" points="217.5,-262.23 214,-252.23 210.5,-262.23 217.5,-262.23"/>
</g>
<!-- 11 -->
<g id="node11" class="node">
<title>11</title>
<path fill="none" stroke="#d89556" stroke-width="2" d="M382,-180C382,-180 336,-180 336,-180 330,-180 324,-174 324,-168 324,-168 324,-156 324,-156 324,-150 330,-144 336,-144 336,-144 382,-144 382,-144 388,-144 394,-150 394,-156 394,-156 394,-168 394,-168 394,-174 388,-180 382,-180"/>
<text text-anchor="middle" x="359" y="-159.5" font-family="sans" font-size="10.00">orthofinder</text>
</g>
<!-- 11&#45;&gt;2 -->
<g id="edge2" class="edge">
<title>11&#45;&gt;2</title>
<path fill="none" stroke="grey" stroke-width="2" d="M323.77,-145.29C301.82,-135.5 273.31,-122.79 249.39,-112.13"/>
<polygon fill="grey" stroke="grey" stroke-width="2" points="250.69,-108.88 240.14,-108 247.84,-115.27 250.69,-108.88"/>
</g>
<!-- 11&#45;&gt;17 -->
<g id="edge23" class="edge">
<title>11&#45;&gt;17</title>
<path fill="none" stroke="grey" stroke-width="2" d="M362.21,-143.7C363.65,-135.98 365.37,-126.71 366.96,-118.11"/>
<polygon fill="grey" stroke="grey" stroke-width="2" points="370.44,-118.58 368.82,-108.1 363.56,-117.3 370.44,-118.58"/>
</g>
<!-- 12&#45;&gt;11 -->
<g id="edge14" class="edge">
<title>12&#45;&gt;11</title>
<path fill="none" stroke="grey" stroke-width="2" d="M330.86,-287.87C336.34,-263.56 346.42,-218.82 352.91,-190.01"/>
<polygon fill="grey" stroke="grey" stroke-width="2" points="356.34,-190.71 355.13,-180.19 349.51,-189.18 356.34,-190.71"/>
</g>
<!-- 13 -->
<g id="node13" class="node">
<title>13</title>
<path fill="none" stroke="#56a9d8" stroke-width="2" d="M645.5,-252C645.5,-252 462.5,-252 462.5,-252 456.5,-252 450.5,-246 450.5,-240 450.5,-240 450.5,-228 450.5,-228 450.5,-222 456.5,-216 462.5,-216 462.5,-216 645.5,-216 645.5,-216 651.5,-216 657.5,-222 657.5,-228 657.5,-228 657.5,-240 657.5,-240 657.5,-246 651.5,-252 645.5,-252"/>
<text text-anchor="middle" x="554" y="-231.5" font-family="sans" font-size="10.00">remove_mega_from_selected_families</text>
</g>
<!-- 14&#45;&gt;13 -->
<g id="edge16" class="edge">
<title>14&#45;&gt;13</title>
<path fill="none" stroke="grey" stroke-width="2" d="M511.09,-287.7C517.92,-279.3 526.26,-269.07 533.76,-259.86"/>
<polygon fill="grey" stroke="grey" stroke-width="2" points="536.47,-262.07 540.07,-252.1 531.04,-257.65 536.47,-262.07"/>
</g>
<!-- 15 -->
<g id="node15" class="node">
<title>15</title>
<path fill="none" stroke="#d6d856" stroke-width="2" d="M553.5,-396C553.5,-396 440.5,-396 440.5,-396 434.5,-396 428.5,-390 428.5,-384 428.5,-384 428.5,-372 428.5,-372 428.5,-366 434.5,-360 440.5,-360 440.5,-360 553.5,-360 553.5,-360 559.5,-360 565.5,-366 565.5,-372 565.5,-372 565.5,-384 565.5,-384 565.5,-390 559.5,-396 553.5,-396"/>
<text text-anchor="middle" x="497" y="-375.5" font-family="sans" font-size="10.00">download_remote_script</text>
</g>
<!-- 15&#45;&gt;14 -->
<g id="edge18" class="edge">
<title>15&#45;&gt;14</title>
<path fill="none" stroke="grey" stroke-width="2" d="M497,-359.7C497,-351.98 497,-342.71 497,-334.11"/>
<polygon fill="grey" stroke="grey" stroke-width="2" points="500.5,-334.1 497,-324.1 493.5,-334.1 500.5,-334.1"/>
</g>
</g>
</svg>
